<svg width="141" height="35" viewBox="0 0 141 35" fill="none" xmlns="http://www.w3.org/2000/svg">
<path d="M29.8398 16.1745C30.0314 16.5078 30.1322 16.8855 30.1322 17.27C30.1322 17.6545 30.0314 18.0322 29.8398 18.3655L25.531 25.7989C25.3385 26.1308 25.0622 26.4063 24.7298 26.5979C24.3975 26.7894 24.0206 26.8904 23.637 26.8906H15.0656C14.6846 26.8877 14.3109 26.7855 13.9815 26.594C13.652 26.4026 13.3782 26.1285 13.187 25.7989L8.87818 18.3655C8.68663 18.0322 8.58582 17.6545 8.58582 17.27C8.58582 16.8855 8.68663 16.5078 8.87818 16.1745L11.2583 12.0701L16.5546 21.1275C16.6418 21.2825 16.7691 21.4113 16.9232 21.5002C17.0772 21.5891 17.2524 21.6349 17.4302 21.6328H21.2877C21.4656 21.6349 21.6408 21.5891 21.7948 21.5002C21.9489 21.4113 22.0762 21.2825 22.1634 21.1275L24.0921 17.7599C24.1795 17.6086 24.2255 17.437 24.2255 17.2623C24.2255 17.0876 24.1795 16.916 24.0921 16.7647L15.3973 1.72045C15.0956 1.19867 14.662 0.765395 14.14 0.464102C13.618 0.16281 13.0259 0.00408612 12.4232 0.0038563L11.644 0.00385633C10.9544 0.00359483 10.2769 0.184921 9.6797 0.529594C9.08244 0.874267 8.58648 1.37014 8.24169 1.96733L0.526707 15.3104C0.181669 15.9072 -3.0135e-08 16.5845 0 17.2739C3.0134e-08 17.9633 0.181669 18.6405 0.526707 19.2373L8.2417 32.5804C8.58697 33.1769 9.08314 33.672 9.68036 34.0159C10.2776 34.3599 10.9548 34.5407 11.644 34.54H27.074C27.7636 34.5403 28.441 34.3589 29.0383 34.0143C29.6355 33.6696 30.1315 33.1737 30.4763 32.5765L38.1913 19.2335C38.5363 18.6366 38.718 17.9594 38.718 17.27C38.718 16.5806 38.5363 15.9034 38.1913 15.3065L30.4763 1.96347C30.1315 1.36628 29.6355 0.870408 29.0383 0.525735C28.441 0.181062 27.7636 -0.000261281 27.074 2.82584e-07L20.5162 5.69234e-07L29.8398 16.1745Z" fill="#475BE8"/>
<path d="M50.98 24V8.644C51.5813 8.57067 52.2413 8.51933 52.96 8.49C53.6933 8.446 54.4487 8.424 55.226 8.424C56.502 8.424 57.5873 8.62933 58.482 9.04C59.3767 9.436 60.0587 9.986 60.528 10.69C60.9973 11.394 61.232 12.2007 61.232 13.11C61.232 14.21 60.9607 15.1413 60.418 15.904C59.8753 16.6667 59.12 17.2533 58.152 17.664C57.184 18.06 56.062 18.258 54.786 18.258C54.17 18.258 53.598 18.236 53.07 18.192V24H50.98ZM55.05 16.52C56.3553 16.52 57.3673 16.2267 58.086 15.64C58.8047 15.0533 59.164 14.2687 59.164 13.286C59.164 12.3327 58.8193 11.5773 58.13 11.02C57.4407 10.4627 56.458 10.184 55.182 10.184C54.786 10.184 54.412 10.1913 54.06 10.206C53.708 10.2207 53.378 10.2427 53.07 10.272V16.41C53.3047 16.4393 53.5907 16.4687 53.928 16.498C54.2653 16.5127 54.6393 16.52 55.05 16.52ZM66.4084 24.264C65.543 24.264 64.7584 24.154 64.0544 23.934C63.365 23.714 62.793 23.428 62.3384 23.076L63.1744 21.426C63.5557 21.7487 64.0324 22.02 64.6044 22.24C65.191 22.4453 65.8144 22.548 66.4744 22.548C67.2957 22.548 67.9117 22.416 68.3224 22.152C68.7477 21.8733 68.9604 21.5213 68.9604 21.096C68.9604 20.788 68.8797 20.5167 68.7184 20.282C68.5717 20.0473 68.293 19.82 67.8824 19.6C67.4717 19.3653 66.8777 19.116 66.1004 18.852C65.0297 18.4853 64.223 18.0527 63.6804 17.554C63.1524 17.0407 62.8884 16.3367 62.8884 15.442C62.8884 14.562 63.2697 13.8213 64.0324 13.22C64.8097 12.604 65.8804 12.296 67.2444 12.296C67.9777 12.296 68.6304 12.3767 69.2024 12.538C69.7744 12.6847 70.2877 12.8753 70.7424 13.11L70.1924 14.738C69.7964 14.5033 69.3417 14.3127 68.8284 14.166C68.3297 14.0193 67.7724 13.946 67.1564 13.946C66.3937 13.946 65.8144 14.1 65.4184 14.408C65.0224 14.716 64.8244 15.0533 64.8244 15.42C64.8244 15.772 64.9784 16.0727 65.2864 16.322C65.5944 16.5713 66.1957 16.8427 67.0904 17.136C68.5424 17.62 69.5544 18.1553 70.1264 18.742C70.6984 19.3287 70.9844 20.062 70.9844 20.942C70.9844 21.9687 70.5664 22.7827 69.7304 23.384C68.909 23.9707 67.8017 24.264 66.4084 24.264ZM91.0171 24.22L89.3011 19.82H82.1731L80.4571 24.176L78.6751 23.45L84.7031 8.6H86.9911L92.9311 23.45L91.0171 24.22ZM82.8331 18.06H88.6191L85.7371 10.668L82.8331 18.06ZM97.9904 24.264C97.1251 24.264 96.3404 24.154 95.6364 23.934C94.9471 23.714 94.3751 23.428 93.9204 23.076L94.7564 21.426C95.1377 21.7487 95.6144 22.02 96.1864 22.24C96.7731 22.4453 97.3964 22.548 98.0564 22.548C98.8777 22.548 99.4937 22.416 99.9044 22.152C100.33 21.8733 100.542 21.5213 100.542 21.096C100.542 20.788 100.462 20.5167 100.3 20.282C100.154 20.0473 99.8751 19.82 99.4644 19.6C99.0537 19.3653 98.4597 19.116 97.6824 18.852C96.6117 18.4853 95.8051 18.0527 95.2624 17.554C94.7344 17.0407 94.4704 16.3367 94.4704 15.442C94.4704 14.562 94.8517 13.8213 95.6144 13.22C96.3917 12.604 97.4624 12.296 98.8264 12.296C99.5597 12.296 100.212 12.3767 100.784 12.538C101.356 12.6847 101.87 12.8753 102.324 13.11L101.774 14.738C101.378 14.5033 100.924 14.3127 100.41 14.166C99.9117 14.0193 99.3544 13.946 98.7384 13.946C97.9757 13.946 97.3964 14.1 97.0004 14.408C96.6044 14.716 96.4064 15.0533 96.4064 15.42C96.4064 15.772 96.5604 16.0727 96.8684 16.322C97.1764 16.5713 97.7777 16.8427 98.6724 17.136C100.124 17.62 101.136 18.1553 101.708 18.742C102.28 19.3287 102.566 20.062 102.566 20.942C102.566 21.9687 102.148 22.7827 101.312 23.384C100.491 23.9707 99.3837 24.264 97.9904 24.264ZM108.281 24.264C107.416 24.264 106.631 24.154 105.927 23.934C105.238 23.714 104.666 23.428 104.211 23.076L105.047 21.426C105.429 21.7487 105.905 22.02 106.477 22.24C107.064 22.4453 107.687 22.548 108.347 22.548C109.169 22.548 109.785 22.416 110.195 22.152C110.621 21.8733 110.833 21.5213 110.833 21.096C110.833 20.788 110.753 20.5167 110.591 20.282C110.445 20.0473 110.166 19.82 109.755 19.6C109.345 19.3653 108.751 19.116 107.973 18.852C106.903 18.4853 106.096 18.0527 105.553 17.554C105.025 17.0407 104.761 16.3367 104.761 15.442C104.761 14.562 105.143 13.8213 105.905 13.22C106.683 12.604 107.753 12.296 109.117 12.296C109.851 12.296 110.503 12.3767 111.075 12.538C111.647 12.6847 112.161 12.8753 112.615 13.11L112.065 14.738C111.669 14.5033 111.215 14.3127 110.701 14.166C110.203 14.0193 109.645 13.946 109.029 13.946C108.267 13.946 107.687 14.1 107.291 14.408C106.895 14.716 106.697 15.0533 106.697 15.42C106.697 15.772 106.851 16.0727 107.159 16.322C107.467 16.5713 108.069 16.8427 108.963 17.136C110.415 17.62 111.427 18.1553 111.999 18.742C112.571 19.3287 112.857 20.062 112.857 20.942C112.857 21.9687 112.439 22.7827 111.603 23.384C110.782 23.9707 109.675 24.264 108.281 24.264ZM120.068 24.264C118.426 24.264 117.12 23.7433 116.152 22.702C115.199 21.646 114.722 20.172 114.722 18.28C114.722 17.136 114.935 16.1167 115.36 15.222C115.8 14.3127 116.409 13.6013 117.186 13.088C117.964 12.56 118.866 12.296 119.892 12.296C120.992 12.296 121.902 12.538 122.62 13.022C123.354 13.4913 123.904 14.1293 124.27 14.936C124.637 15.7427 124.82 16.63 124.82 17.598C124.82 18.1113 124.798 18.61 124.754 19.094H116.746C116.878 20.1647 117.252 21.0007 117.868 21.602C118.484 22.2033 119.298 22.504 120.31 22.504C120.97 22.504 121.564 22.438 122.092 22.306C122.62 22.1593 123.126 21.976 123.61 21.756L124.072 23.45C123.544 23.6847 122.95 23.8753 122.29 24.022C121.63 24.1833 120.89 24.264 120.068 24.264ZM116.724 17.488H122.994C122.994 16.3733 122.716 15.5153 122.158 14.914C121.601 14.3127 120.831 14.012 119.848 14.012C118.998 14.012 118.294 14.3127 117.736 14.914C117.179 15.5007 116.842 16.3587 116.724 17.488ZM131.463 24.264C130.363 24.264 129.491 23.9047 128.845 23.186C128.215 22.4527 127.899 21.4113 127.899 20.062V14.694H125.919V12.978H127.943L128.361 9.37H129.879V12.978H133.047V14.694H129.879V20.216C129.879 21.0667 130.055 21.6607 130.407 21.998C130.774 22.3353 131.207 22.504 131.705 22.504C132.072 22.504 132.417 22.4453 132.739 22.328C133.077 22.2107 133.385 22.0713 133.663 21.91L134.213 23.494C133.92 23.67 133.524 23.8387 133.025 24C132.527 24.176 132.006 24.264 131.463 24.264Z" fill="white"/>
</svg>
